<?xml version="1.0" standalone="no"?>
<!DOCTYPE svg PUBLIC "-//W3C//DTD SVG 1.1//EN" "http://www.w3.org/Graphics/SVG/1.1/DTD/svg11.dtd" >
<svg>
<metadata>
Created by FontForge 20090622 at Sat May  9 06:04:50 2020
 By deploy user
Created with the help of MyScriptFont.com
Copyright belongs to the Creator.
</metadata>
<defs>
<font id="Macopah" horiz-adv-x="10" >
  <font-face 
    font-family="Macopah"
    font-weight="500"
    font-stretch="normal"
    units-per-em="1000"
    panose-1="2 0 6 3 0 0 0 0 0 0"
    ascent="800"
    descent="-200"
    x-height="354"
    cap-height="551.5"
    bbox="9.17647 -173.043 838.5 666"
    underline-thickness="50"
    underline-position="-100"
    unicode-range="U+0020-U+20AC"
  />
<missing-glyph horiz-adv-x="364" 
d="M33 0v666h265v-666h-265zM66 33h199v600h-199v-600z" />
    <glyph glyph-name=".notdef" horiz-adv-x="364" 
d="M33 0v666h265v-666h-265zM66 33h199v600h-199v-600z" />
    <glyph glyph-name=".null" horiz-adv-x="0" 
 />
    <glyph glyph-name="nonmarkingreturn" horiz-adv-x="333" 
 />
    <glyph glyph-name="space" unicode=" " horiz-adv-x="420" 
 />
    <glyph glyph-name="exclam" unicode="!" horiz-adv-x="107" 
d="M23 75q11 11 34 13t32 -7q11 -11 8 -29.5t-17 -29.5q-17 -13 -28.5 -13.5t-27.5 10.5q-14 9 -14 26t13 30zM40 578.5q5 7.5 19 5.5q15 -2 19 -40t5 -177q0 -116 -5 -157t-19 -46q-4 -1 -9.5 5.5t-10.5 17.5q-7 17 -8.5 52.5t1.5 152.5q3 179 8 186.5z" />
    <glyph glyph-name="numbersign" unicode="#" horiz-adv-x="495" 
d="M104 503q19 20 32 -7q7 -16 7 -42q0 -24 8.5 -26.5t81.5 2.5l74 4l7 30q6 26 17 35t23 -1q11 -9 9 -33l-2 -24l47 -3q39 -3 51.5 -8.5t12.5 -18.5q0 -14 -12.5 -19t-54.5 -8l-51 -3v-68l52 3q79 3 79 -26q0 -14 -12.5 -18.5t-55.5 -5.5q-51 -1 -59 -6q-17 -10 6 -77
q10 -28 10 -34.5t-10 -16.5l-14 -13l-16 19q-13 15 -21.5 40t-8.5 50q0 22 -9.5 25.5t-82.5 -8.5l-72 -12l-2 -26q-1 -15 2.5 -33t7.5 -30.5t6 -24.5t-3 -18t-18 -6q-35 0 -43 79l-4 45l-35 -2q-21 -1 -29 0.5t-11 8.5q-4 12 7.5 21t37.5 14l30 6v100l-29 -2q-28 -2 -32 9
q-5 11 9.5 24t30.5 13q17 0 24 11t7 39q0 34 8 42zM301 307v74h-41q-40 1 -77 -3l-37 -4l-4 -40q-4 -41 1 -46t81 7z" />
    <glyph glyph-name="dollar" unicode="$" horiz-adv-x="402" 
d="M167 584q28 39 37 -28q2 -20 7 -24.5t27 -7.5q26 -5 44.5 -17.5t18.5 -25.5q0 -10 -7 -11q-8 -1 -58 5l-33 4l4 -150l66 -22q72 -25 95.5 -45t23.5 -59q0 -36 -40.5 -70t-103.5 -51l-41 -12l-1 -57q-3 -73 -23 -72q-5 0 -11 4q-12 7 -15 67l-3 60l-60 1q-38 2 -52 4.5
t-22 11.5q-14 13 -7 24q4 7 18.5 9t55.5 3l67 1v159l-35 12q-43 14 -59.5 30.5t-16.5 46.5q0 40 30 85.5t65 58.5q12 4 15.5 9.5t3.5 19.5q0 22 10 37zM157 404q0 60 -6 63.5t-29 -22.5q-18 -20 -26.5 -45t-2.5 -36q5 -8 28 -17.5t29 -6.5q7 4 7 64zM223 129q22 0 72 25.5
t50 51.5q0 13 -15 24t-54 25q-39 15 -55 15q-13 0 -15 -8q-2 -9 -2 -63v-70h19z" />
    <glyph glyph-name="percent" unicode="%" horiz-adv-x="483" 
d="M320 228q7 9 44 8.5t60 -10.5q29 -12 39 -24t10 -34q0 -36 -36 -64.5t-81 -28.5q-35 0 -50.5 20t-13 47t10.5 51t17 35zM426 162q0 14 -20 21.5t-40.5 6t-23.5 -9.5q-4 -10 -2 -35q1 -16 4.5 -21.5t13.5 -6.5q16 -3 42 14.5t26 30.5zM72 490q33 10 80.5 -4.5t64.5 -39.5
q18 -28 8 -62t-43 -54q-37 -23 -71 -21.5t-54 27.5q-11 13 -13 34.5t0 37.5t-4 32q-6 14 3.5 29.5t28.5 20.5zM163 431q-22 13 -40.5 13t-27.5 -14q-10 -14 -11 -38.5t8 -33.5q16 -16 52 0t39 41q1 11 -3 17.5t-17 14.5zM10 56q0 18 38.5 63t91.5 98.5t125 135.5t123 155
q10 14 15.5 15.5t14.5 -6.5q20 -20 -19 -77q-37 -51 -84 -105.5t-135 -146.5q-115 -120 -126 -143q-12 -26 -28 -22t-16 33z" />
    <glyph glyph-name="ampersand" unicode="&#x26;" horiz-adv-x="405" 
d="M99 592q33 20 84 11.5t80 -39.5q16 -18 28.5 -49t12.5 -55q1 -47 -26.5 -89.5t-92.5 -94.5l-31 -24l40 -38q40 -38 46 -36t24 36t38 60.5t33 15.5t9 -34t-26 -67l-29 -55l46 -41q41 -36 53.5 -60t0.5 -42q-10 -17 -21 -17q-7 0 -25.5 18.5l-42 43t-36.5 33.5
q-16 11 -21 11t-18 -10q-28 -21 -51.5 -29t-54.5 -9q-102 -1 -108 110q-3 37 4.5 58t30.5 42q16 15 16 24t-15 47q-33 83 -18 164.5t70 114.5zM201 532q-24 15 -47.5 13t-39.5 -21t-21 -44t-2 -75q2 -36 12 -65.5t19 -29.5t53.5 39.5t51.5 53.5q20 38 13 74t-39 55zM150 166
q-42 43 -48 43t-17 -16t-15 -38t10 -45q11 -15 38.5 -15t51.5 14l23 14z" />
    <glyph glyph-name="quotesingle" unicode="'" horiz-adv-x="126" 
d="M78 574q10 11 15 11t15 -12q8 -9 7.5 -17t-9.5 -35q-52 -163 -69 -173q-12 -8 -20 1.5t-7 29.5t29.5 101t38.5 94z" />
    <glyph glyph-name="parenleft" unicode="(" horiz-adv-x="186" 
d="M113 556q14 14 21 15t16 -10q6 -7 -1.5 -24.5t-22.5 -48.5t-30.5 -71t-27.5 -103t-12 -132q0 -84 17 -124t66 -72q67 -45 16 -45q-25 0 -60 19t-49 41q-23 35 -30.5 78.5t-4.5 129.5q3 104 20 169q14 52 38.5 105.5t43.5 72.5z" />
    <glyph glyph-name="parenright" unicode=")" horiz-adv-x="194" 
d="M13 562q8 10 17 10q20 0 64.5 -75.5t70.5 -152.5q13 -39 16 -64t3 -91q0 -69 -2.5 -88.5t-15.5 -48.5q-27 -57 -65 -96.5t-58 -31.5q-7 2 -8.5 7t2 13t9.5 17l15 21.5l18.5 25t19.5 29t17 31.5q15 31 18 48.5t3 69.5q0 74 -15 125q-13 47 -40 106t-52 97
q-15 23 -18.5 32.5t1.5 15.5z" />
    <glyph glyph-name="asterisk" unicode="*" horiz-adv-x="307" 
d="M281 511q0 -11 -19.5 -28.5t-38.5 -32t-19 -18.5q0 -6 47 -42q29 -22 38 -32.5t7 -20.5q-4 -37 -62 4l-13 9q-40 31 -47 24t2 -69q8 -57 0 -66q-21 -25 -37 10q-10 22 -13 59q-4 56 -11 57q-5 1 -28 -21q-19 -18 -27 -22t-17 1q-16 9 -11.5 23.5t34.5 43.5q37 37 37 45
q0 5 -26.5 27t-49.5 46t-15 36q6 11 21 5t47 -31q35 -28 41.5 -25.5t11.5 45.5q4 31 7 39t12 8q25 0 25 -54q0 -38 4 -42q3 -2 40 21q58 32 60 1z" />
    <glyph glyph-name="plus" unicode="+" horiz-adv-x="298" 
d="M136 433q28 33 35 -30q1 -9 1 -19l2 -44l114 -6v-41l-114 -6l-3 -64q-3 -44 -5.5 -54.5t-12.5 -11.5q-16 -2 -22.5 12.5t-8.5 60.5l-2 57l-48 2q-62 2 -62 22q0 5 4 11q7 12 57 15l49 3l4 41q3 41 12 52z" />
    <glyph glyph-name="comma" unicode="," horiz-adv-x="98" 
d="M35 27q0 20 6.5 37.5t20.5 17.5q17 0 24 -32.5t-5 -56.5q-10 -20 -24.5 -32.5t-26.5 -12.5q-17 0 -19.5 11.5t9.5 28.5q15 19 15 39z" />
    <glyph glyph-name="hyphen" unicode="-" horiz-adv-x="274" 
d="M10 218q0 17 22.5 21t105.5 4q71 0 93.5 -2t27.5 -9q9 -11 2 -22q-5 -7 -26 -9t-90 -3q-81 -2 -108 2t-27 18z" />
    <glyph glyph-name="period" unicode="." horiz-adv-x="94" 
d="M18 87q14 14 40 4.5t26 -28.5q0 -10 -15 -26t-24 -16q-21 0 -31.5 26t4.5 40z" />
    <glyph glyph-name="slash" unicode="/" horiz-adv-x="401" 
d="M97 149q55 72 102.5 146.5t75.5 126l50 94t34 63t19 18.5q11 -2 13 -25q2 -22 -50.5 -129t-103.5 -183q-42 -63 -117.5 -162t-86.5 -105q-9 -5 -16 -1t-7 15q0 28 87 142z" />
    <glyph glyph-name="zero" unicode="0" horiz-adv-x="308" 
d="M92 507q21 18 45 18q25 0 60.5 -18.5t53.5 -40.5q41 -50 46.5 -140.5t-25 -172t-82.5 -109.5q-18 -9 -47 -9q-48 0 -83 44.5t-45 113.5t5 152q10 48 32 96.5t40 65.5zM184 454q-37 20 -60 3.5t-42 -76.5q-15 -47 -15 -128q0 -56 3 -73.5t15 -41.5q19 -35 32 -42
q53 -29 93 47q39 75 34 176q-5 107 -60 135z" />
    <glyph glyph-name="one" unicode="1" horiz-adv-x="129" 
d="M10 455q0 11 35.5 43.5t45.5 32.5q17 1 22 -15q7 -26 6 -239q-2 -164 -4 -200t-11 -45q-10 -10 -13.5 -9.5t-14 11t-12.5 34.5q-1 27 4 183q6 203 1 209.5t-22 -9.5q-13 -13 -25 -11.5t-12 15.5z" />
    <glyph glyph-name="two" unicode="2" horiz-adv-x="344" 
d="M102 537q26 8 61.5 7.5t53.5 -8.5q65 -27 89 -94.5t-8 -132.5q-14 -26 -69.5 -86t-93.5 -89l-24 -18h81q80 -1 106 -5q20 -3 31 -15.5t1 -22.5q-7 -7 -158 -9q-106 -1 -129.5 0.5t-28.5 10.5q-7 13 -3 23q2 6 35 32l72.5 56.5t80 72.5t57.5 76q20 42 6 87t-53 66
q-31 12 -66 8.5t-60.5 -22.5t-17.5 -39q7 -18 -12 -27t-32 6q-17 21 13 66.5t68 56.5z" />
    <glyph glyph-name="three" unicode="3" horiz-adv-x="324" 
d="M140 518q93 12 112 12t29 -11q13 -15 0.5 -36t-60.5 -68q-57 -55 -57 -60t20 -5t45.5 -10.5t41.5 -24.5q31 -29 40.5 -76.5t-9.5 -82.5q-14 -26 -50 -60t-64 -47q-32 -15 -69 -13.5t-61 18.5q-34 24 -44.5 69t9.5 78q13 21 29 29t48 9q40 1 57 -20t-4 -45
q-12 -13 -24.5 -11.5t-18.5 16.5q-4 11 -8 13.5t-13 -0.5q-18 -5 -25 -13.5t-7 -24.5q0 -31 20.5 -51.5t51.5 -20.5q34 0 78.5 36.5t57.5 74.5q15 46 -31 91q-17 16 -27.5 19.5t-44.5 3.5q-15 0 -29.5 -1t-22.5 -1.5t-15.5 -1.5t-11 -0.5t-6 0.5t-3.5 3.5t-1.5 6.5t-1.5 10
q-1 17 5.5 26.5t38.5 35.5q40 34 66 60t22 29q-2 3 -77 -4.5t-86 0.5q-9 8 -9.5 17.5t7.5 14.5q7 5 102 16z" />
    <glyph glyph-name="four" unicode="4" horiz-adv-x="379" 
d="M43 523q7 8 15.5 8t13.5 -7q4 -7 9 -105l4 -99h174l4 95q3 103 17 109q5 3 15 -3q7 -5 10 -24t5 -80l3 -97l22 -2q20 -2 29.5 -12t2 -19.5t-27.5 -11.5l-26 -2l-3 -101q-3 -92 -10 -99q-2 -2 -8 -3q-18 -3 -23.5 16.5t-7.5 90.5l-2 89l-118 2q-72 1 -97 3.5t-30 8.5
t-4 11.5t10 14.5q10 10 12.5 27t2.5 85q0 97 8 105z" />
    <glyph glyph-name="five" unicode="5" horiz-adv-x="334" 
d="M41 503q-14 27 25 32q17 3 96 2l112 -2v-40l-175 -7l-2 -43q0 -22 -0.5 -34.5t2.5 -17.5t8 -4.5t15 5.5q22 11 60.5 10t58.5 -14q33 -20 58 -67.5t25 -88.5q0 -37 -12.5 -63.5t-44.5 -59.5q-35 -34 -67 -48.5t-77 -14.5q-51 0 -80.5 29t-32.5 81q-2 49 18.5 79.5
t61.5 36.5q26 4 43.5 -12t20.5 -47q2 -19 0 -28t-11 -18q-16 -15 -23.5 -9.5t-10.5 33.5q-3 29 -13 34t-26 -15q-17 -21 -15 -49.5t20 -47.5q42 -43 122 -1q69 35 79 102t-45 123q-14 15 -24 20t-25 5q-23 0 -49 -10t-41 -24q-11 -10 -14.5 -10t-12.5 11q-13 14 -15.5 86.5
t-8.5 85.5z" />
    <glyph glyph-name="six" unicode="6" horiz-adv-x="349" 
d="M159 505q20 12 39.5 16.5t31 1.5t11.5 -14q0 -10 -15.5 -21t-37 -22t-48 -36t-43.5 -60q-15 -29 -24.5 -58.5t-5.5 -33.5q3 -4 27 24q49 58 116 55.5t105 -63.5q20 -33 23.5 -79t-12.5 -77q-17 -33 -44.5 -52.5t-55 -25t-55.5 -4t-46 6t-26 8.5q-72 37 -86 123t34 187
q38 81 112 124zM251 293q-31 26 -70.5 11t-69.5 -64q-20 -33 -23 -63.5t11 -46.5q13 -14 44 -21.5t59 -3.5q32 5 58 29t30 54q3 28 -8 58t-31 47z" />
    <glyph glyph-name="seven" unicode="7" horiz-adv-x="338" 
d="M16 535q5 6 35 8t120 2q106 0 127.5 -2t26.5 -12q5 -9 -0.5 -18t-32.5 -33q-30 -27 -70 -84.5t-35 -65.5q4 -7 42 -7q56 0 56 -21q0 -7 -24 -14t-60 -11l-47 -4l-12 -33q-10 -30 -11.5 -74.5t7.5 -68.5q11 -30 -3.5 -28.5t-36.5 33.5q-18 32 -15 66.5t10.5 67t5.5 33.5
q-2 3 -30.5 10.5t-28.5 20.5q0 9 7.5 12t35.5 7l44 6l20 34q11 21 32.5 54.5l36.5 56t15 24.5q0 4 -109 6q-74 1 -92 3t-20 10q-2 13 6 22z" />
    <glyph glyph-name="eight" unicode="8" horiz-adv-x="332" 
d="M139 542q83 21 127 -3t44 -88q0 -27 -11 -54t-43 -76l-25 -38l42 -42q43 -42 48 -67q13 -70 -88 -117q-52 -24 -111 -12.5t-85 50.5q-21 31 -14.5 87.5t36.5 102.5l17 26l-27 24q-35 30 -38.5 69.5t24.5 78.5q30 41 104 59zM247 488q-15 16 -41.5 15.5t-77.5 -16.5
q-48 -15 -62 -51.5t18 -65.5q21 -20 36 -20t22 -12q5 -9 26 -20.5t24 -6.5q2 2 29 46q36 55 41.5 83t-15.5 48zM277 156q0 17 -67.5 72t-88.5 55q-13 0 -28 -34t-20 -69.5t2 -56.5q14 -25 58 -32t81 11q23 12 43 28.5t20 25.5z" />
    <glyph glyph-name="nine" unicode="9" horiz-adv-x="354" 
d="M110 531q15 4 30 12.5t22.5 12t24.5 1.5t43 -14q41 -19 73 -63.5t40 -92.5q3 -20 -0.5 -57.5t-18.5 -87t-39.5 -93.5t-68.5 -76.5t-101 -36.5q-34 -2 -57.5 6.5t-29.5 25.5q-5 15 0 21t17 -1q17 -9 54 -6t63 16q29 13 48.5 32t41.5 56q26 43 11 40q-4 -1 -13 -7
q-30 -20 -89 -14.5t-95 31.5q-57 42 -56 123q1 46 12 80q10 31 36 58t52 34zM223 491q-19 12 -24 13t-9 -5t-42 -9q-25 -2 -35 -6.5t-22 -18.5q-33 -39 -33 -110q0 -23 3.5 -34t14.5 -24q34 -41 101 -41q34 0 64 15.5t42 38.5q9 17 10 48t-7 51q-9 23 -27.5 47t-35.5 35z
" />
    <glyph glyph-name="colon" unicode=":" horiz-adv-x="107" 
d="M40 139q19 9 23.5 8.5t15.5 -9.5q13 -12 12.5 -37t-13.5 -32q-34 -18 -57 6q-20 21 -5 45q7 12 24 19zM42 399q10 11 18 11.5t23 -10.5q17 -11 14.5 -32t-21.5 -27q-18 -7 -32 5q-12 12 -13 26t11 27z" />
    <glyph glyph-name="semicolon" unicode=";" horiz-adv-x="113" 
d="M43 128q0 15 12 23t23.5 0.5t11.5 -27.5q0 -30 -26.5 -53.5t-43.5 -8.5q-12 9 -10 21t16 22q17 10 17 23zM48 410q13 7 20.5 6.5t20.5 -9.5t14 -27.5t-10 -34.5q-10 -15 -29.5 -15t-27.5 14q-7 14 -3 37t15 29z" />
    <glyph glyph-name="less" unicode="&#x3c;" horiz-adv-x="412" 
d="M343 507q19 15 37.5 15.5t21.5 -12.5q3 -18 -75.5 -63.5t-158.5 -85t-80 -44.5q0 -8 38.5 -23.5t90 -33t67.5 -25.5q20 -10 56 -43t36 -41q0 -7 -12 -18q-13 -11 -26.5 -5t-43.5 36q-18 18 -37.5 28t-66.5 27q-73 24 -121 47t-55 37t0 27q5 9 78 46.5l154 78t97 52.5z
" />
    <glyph glyph-name="equal" unicode="=" horiz-adv-x="268" 
d="M26 259q2 7 22.5 9t92.5 2t92.5 -2t22.5 -9q4 -11 -2 -22q-5 -7 -25 -9t-88 -2t-88 2t-25 9q-6 11 -2 22zM14 399q5 5 115 5q72 0 91.5 -2t22.5 -9q4 -11 -3 -22q-4 -7 -23.5 -9t-81.5 -4q-98 -2 -111 6q-10 5 -13 17t3 18z" />
    <glyph glyph-name="greater" unicode="&#x3e;" horiz-adv-x="437" 
d="M29 490q6 5 10.5 6t12.5 -2t17.5 -9.5t27.5 -17.5t40.5 -23t59 -29t79.5 -34q64 -25 108 -46q29 -15 36 -22t7 -20t-11.5 -24t-40 -23t-61 -24l-90.5 -34.5t-112 -46.5q-73 -32 -82 -32q-8 0 -15.5 13t-3.5 20q6 9 59.5 34t125.5 53q147 57 150 62v3q-1 6 -47 26
q-67 28 -147.5 68t-102.5 56t-26 25.5t6 20.5z" />
    <glyph glyph-name="question" unicode="?" horiz-adv-x="344" 
d="M87 55q12 12 16.5 12.5t17.5 -6.5q19 -10 12 -31.5t-29 -21.5t-27.5 15.5t10.5 31.5zM88 537q16 8 48 12t70.5 1.5t73.5 -25.5t48 -64q9 -28 5 -79t-17 -77q-14 -26 -38.5 -44.5t-93.5 -53.5q-67 -34 -82.5 -48t-6.5 -33q8 -17 3 -20.5t-23 5.5q-61 32 1 85q29 25 83 51
q84 39 106.5 66.5t22.5 87.5q0 57 -22 79.5t-85 28.5q-53 5 -86.5 -21.5t-39.5 -78.5q-3 -31 4 -41t34 -13q24 -2 31.5 10t-10.5 25q-10 8 -11.5 12.5t4.5 10.5q9 12 22 10t24.5 -16.5t13.5 -34t-6 -35.5q-12 -22 -54.5 -24.5t-68.5 17.5q-27 21 -28.5 64t20.5 84t58 59z
" />
    <glyph glyph-name="at" unicode="@" horiz-adv-x="599" 
d="M190 518q25 9 48.5 11t75.5 0q104 -3 166.5 -30.5t91.5 -81.5q13 -26 15.5 -41t1.5 -63q-2 -45 -6 -63t-17 -45q-20 -39 -43.5 -54.5t-58.5 -13.5q-36 3 -56 22l-20 20l-22 -21q-22 -21 -38 -28.5t-40 -7.5q-46 0 -68 26t-18 75q6 67 59 118l27 26h55q50 0 61 -11.5
t11 -63.5q0 -109 59 -109q14 0 32.5 21.5t26.5 48.5q9 31 9.5 71.5t-9.5 62.5q-31 73 -181 92q-154 20 -236 -60q-27 -26 -40 -58.5t-16 -81.5q-2 -50 8 -84.5t36 -64.5q31 -37 68.5 -55.5t96.5 -26.5q95 -12 182 34q53 27 55.5 27t2.5 -16q0 -13 -23.5 -37t-46.5 -36
q-24 -12 -64 -19t-91 -3.5t-100 19t-92.5 54.5t-66.5 97q-9 22 -13.5 55t0 77t21 84.5t57 77.5t100.5 56zM355 313q-6 16 -15 17t-32 -11q-17 -9 -32 -30t-22.5 -43.5t-6.5 -42.5t13 -27q22 -11 44.5 -2.5t36.5 30t20 51t-6 58.5z" />
    <glyph glyph-name="A" unicode="A" horiz-adv-x="393" 
d="M185 550q18 24 44 -29q14 -31 77.5 -200.5t71.5 -200.5q7 -28 3 -40.5t-19 -9.5q-10 1 -17.5 15.5t-24.5 63.5l-27 77l-80 -2q-81 -3 -94 -8q-21 -8 -61 -137q-7 -19 -18 -26t-22 2q-6 5 -7.5 13.5t1.5 22.5t8.5 30t15 41.5l19 50l24 62t26.5 72.5q19 54 47 125.5
t33 77.5zM270 281.5q0 11.5 -31.5 97t-36.5 85.5q-4 0 -10 -14t-34 -93q-29 -83 -24 -89q4 -5 70 -1.5t66 15z" />
    <glyph glyph-name="B" unicode="B" horiz-adv-x="296" 
d="M19.5 548q6.5 7 31 13.5t58 8t70 -15t60.5 -51.5q19 -28 21.5 -69.5t-13.5 -66.5q-13 -20 -32 -36q-8 -6 -8 -8t9 -9q77 -48 70 -119q-3 -31 -17 -50.5t-50 -43.5q-41 -28 -115 -44.5t-89 -1.5q-7 7 -4.5 246.5t9 246.5zM160 518q-21 11 -51 13t-45 -7q-9 -5 -10.5 -36.5
t1.5 -179.5q3 -208 6.5 -211t49.5 8q79 20 111.5 58.5t8.5 85.5q-7 14 -38 31t-49 17q-10 0 -19 10q0 1 -1 2q-6 7 -1.5 12.5t39.5 29.5l9 6q30 21 40 38t6 41q-10 58 -57 82z" />
    <glyph glyph-name="C" unicode="C" horiz-adv-x="375" 
d="M122 545q28 15 86 13t90 -20q22 -12 30 -25.5t-2 -22.5q-5 -5 -23 0.5t-50 13.5t-63 6q-29 -2 -39 -6.5t-27 -22.5q-32 -34 -51 -99t-15 -120q3 -34 21 -70t43 -56q36 -30 90 -34t102 20q39 20 45 17q19 -12 -13 -44q-31 -31 -68 -40q-31 -8 -70.5 -3.5t-72.5 18.5
q-32 14 -65 50.5t-47 73.5q-15 41 -12.5 108.5t21.5 118.5q17 44 41 77.5t49 46.5z" />
    <glyph glyph-name="D" unicode="D" horiz-adv-x="369" 
d="M22 546q13 12 120 9q37 -1 57 -4.5t44 -14.5q57 -27 84.5 -66t30.5 -100q9 -145 -90 -244q-38 -39 -77 -56.5t-92 -20.5q-38 -2 -49.5 0t-22.5 13l-17 17l3 230q4 231 9 237zM300 421q-14 32 -43 53t-60 28.5t-60.5 9t-48.5 -1.5t-20 -7q-4 -8 -2 -210l2 -201l27 2
q49 5 98 35.5t77 74.5q30 48 39 112.5t-9 104.5z" />
    <glyph glyph-name="E" unicode="E" horiz-adv-x="274" 
d="M20 551q6 7 27.5 8.5t91.5 0.5q109 -2 118 -5t7 -22l-2 -18l-198 -4l3 -251l77 -4q46 -2 62.5 -4.5t20.5 -9.5q7 -12 -6 -26q-8 -10 -21 -11.5t-62 -0.5l-71 2v-101l175 -6v-41l-104 -2q-67 -1 -87.5 0.5t-28.5 9.5t-10 44t-2 199q0 143 2 189t8 53z" />
    <glyph glyph-name="F" unicode="F" horiz-adv-x="296" 
d="M28 549q13 9 133 9q78 0 99.5 -1.5t24.5 -9.5q4 -11 -3 -21q-4 -7 -25 -9.5t-89 -2.5l-106 -1l-4 -221l56 -3q55 -3 71 -12q11 -6 11.5 -9t-6.5 -11q-12 -11 -70 -14l-58 -3l-7 -182h-40l-4 104q-3 104 0 241q3 94 5.5 117t11.5 29z" />
    <glyph glyph-name="G" unicode="G" horiz-adv-x="405" 
d="M88 472q57 61 128.5 69.5t119.5 -38.5q31 -30 20 -44t-47 9q-43 29 -92 21.5t-88 -49.5q-45 -49 -59.5 -110.5t5.5 -113.5t69 -78q35 -18 82 -19.5t69 14.5q27 20 36.5 40t9.5 58q0 32 -3 42t-16 21q-29 25 -69 18.5t-55 -38.5q-10 -20 -2 -34.5t38 -33.5
q15 -10 25.5 -19.5t8.5 -12.5q-4 -12 -36.5 -8t-54.5 19q-30 20 -36.5 51.5t8 60t47 49t73.5 20.5q36 -1 67 -17t45 -42q15 -29 14 -77.5t-17 -82.5q-29 -60 -100 -78.5t-144 15.5q-38 17 -59.5 37.5t-39.5 56.5q-35 72 -21 151t74 143z" />
    <glyph glyph-name="H" unicode="H" horiz-adv-x="328" 
d="M17 556q15 19 31 0q8 -8 9 -129l2 -120h201l5 108q5 108 12 126q6 16 16 17t18 -12q7 -15 7 -247t-8 -241q-7 -9 -19.5 -9.5t-18 8t-8.5 102.5l-4 94h-201l-7 -201h-40l-2 247q-1 248 7 257z" />
    <glyph glyph-name="I" unicode="I" horiz-adv-x="66" 
d="M15 548q5 5 16.5 3.5t17.5 -8.5q8 -9 6 -243q-1 -155 -3 -195.5t-9 -44.5q-11 -7 -22 -3q-7 3 -9 42.5t-2 202.5q0 241 5 246z" />
    <glyph glyph-name="J" unicode="J" horiz-adv-x="383" 
d="M180 535q0 7 4.5 11t21 7.5t45 5.5t81.5 5q18 1 32 -8t8 -18q-5 -8 -28 -18q-18 -7 -20.5 -12.5t0.5 -28.5q4 -31 8 -146q4 -98 -3.5 -137.5t-37.5 -80.5q-46 -64 -126 -59q-76 5 -117 59q-21 27 -29.5 57.5t-8.5 77.5q0 30 3 45t13 31q19 32 57 45t74.5 2t52.5 -42
q12 -26 10 -52t-17 -45t-35 -17q-15 2 -19 15.5t8 23.5q9 8 10 29.5t-8 29.5q-8 8 -37 8q-36 0 -51 -23.5t-9 -73.5q5 -54 35 -85.5t75 -31.5q59 0 92 62q18 35 21.5 91.5t-5.5 154.5l-9 91l-37 4q-31 3 -42.5 8t-11.5 15z" />
    <glyph glyph-name="K" unicode="K" horiz-adv-x="326" 
d="M21 546q10 11 14.5 11.5t16.5 -10.5q8 -7 10 -24.5t2 -76.5q0 -26 0.5 -46t2 -31.5t3.5 -10.5q4 2 61 62t95 104q35 40 48 20q2 -3 3 -10q2 -13 -29.5 -54l-64 -79.5t-32.5 -45.5q0 -9 38 -69l68 -110l39 -64q17 -26 19 -32.5t-3 -14.5q-9 -11 -22 -9t-33.5 30t-76.5 120
q-58 94 -66 103q-5 6 -11 1.5t-19 -22.5l-20 -31v-100q0 -68 -2.5 -86t-11.5 -26q-9 -9 -13 -9t-13.5 9t-11.5 43.5t-2 206.5q0 159 2 201t9 50z" />
    <glyph glyph-name="L" unicode="L" horiz-adv-x="275" 
d="M18 543q7 9 12.5 8t15.5 -12q7 -8 9.5 -47.5t5.5 -185.5l3 -221l92 -3q92 -3 100 -9q10 -6 8.5 -19t-12.5 -19q-13 -7 -114.5 -7t-114.5 7q-10 5 -11 37q-2 34 -2 217q1 246 8 254z" />
    <glyph glyph-name="M" unicode="M" horiz-adv-x="405" 
d="M319.5 397q-4.5 0 -29 -43.5t-53.5 -87t-43 -43.5q-13 0 -29.5 21t-61.5 98q-36 61 -41 62q-2 0 -3 -22.5t-1.5 -61t-0.5 -83.5q0 -107 -2 -138.5t-9 -37.5q-6 -5 -10.5 -4.5t-11.5 7.5q-7 8 -9.5 45.5t-3.5 180.5q-3 213 5 227q8 15 21 14t22 -18q39 -75 84 -149t53 -74
q3 0 4.5 1.5t6.5 11.5q23 42 59 99q54 85 63 104q17 32 35 11q4 -5 8.5 -70t10 -168t9.5 -153q4 -58 0.5 -78t-19.5 -20q-15 0 -21.5 12t-6.5 39q0 31 -10.5 174.5t-15 143.5z" />
    <glyph glyph-name="N" unicode="N" horiz-adv-x="376" 
d="M18 550q19 19 37 -10q3 -6 32 -44t78 -115q42 -67 91 -132.5t57 -65.5q6 0 6 168q0 67 0.5 102t3.5 57.5t7 28.5t12 6q14 0 18 -26q6 -36 6 -242q0 -164 -2 -204t-9 -43q-13 -5 -23 4.5t-12 27.5q-1 18 -33 62.5l-78.5 105.5t-70.5 100q-63 108 -73 108q-5 0 -3 -181
q2 -125 0.5 -155t-10.5 -40q-8 -10 -13 -11.5t-14 3.5q-10 6 -12 25q-3 27 -3 223q0 240 8 248z" />
    <glyph glyph-name="O" unicode="O" horiz-adv-x="466" 
d="M173 534q59 12 127 -10q28 -8 44 -18t37 -31q58 -58 71.5 -138.5t-24.5 -145.5q-14 -23 -42 -48t-68.5 -46t-83.5 -30.5t-90 2.5t-85 49q-36 34 -44 65q-13 47 4.5 131.5t51.5 133.5q17 26 50.5 54t51.5 32zM310 466q-36 18 -67 22.5t-40 -7.5q-9 -11 -25 -7
q-10 3 -18.5 -2t-26.5 -23q-63 -65 -69 -193q-2 -44 0 -57.5t13 -29.5q29 -43 87 -54t114 16q37 18 70 47t44 54q10 23 12 60.5t-6 65.5q-10 33 -34 63t-54 45z" />
    <glyph glyph-name="P" unicode="P" horiz-adv-x="336" 
d="M72 539q75 26 138 -0.5t99 -98.5q15 -29 17 -64.5t-9 -57.5q-21 -41 -82 -77.5t-125 -47.5l-49 -8l-3 -77q-3 -55 -5.5 -66t-13.5 -13q-16 -2 -22 4t-7 237q0 193 5.5 221t28.5 38q2 1 28 10zM198 495q-18 9 -60.5 9t-59.5 -8l-17 -9l-2 -122q-1 -105 5 -119q6 -13 34 -7
q2 0 17 3q65 15 114.5 52.5t49.5 72.5t-24 73t-57 55z" />
    <glyph glyph-name="Q" unicode="Q" horiz-adv-x="462" 
d="M172 534q59 12 128 -10q29 -9 44.5 -18.5t38.5 -34.5q38 -38 53.5 -76.5t15.5 -95.5q1 -52 -16 -89.5t-56 -71.5l-36 -31l23 -34q20 -29 20.5 -42t-19.5 -15q-11 -1 -19 5t-23 27q-25 34 -28 34q-1 0 -20.5 -5.5t-43 -10t-58 -2.5t-63.5 14q-34 14 -60.5 43t-35.5 60
q-15 51 1 133t51 134q18 26 51.5 54t51.5 32zM295 474q-30 12 -57.5 14.5t-35.5 -7.5q-10 -11 -26 -7q-10 3 -18.5 -2t-25.5 -23q-63 -65 -69 -193q-2 -44 0 -57.5t13 -29.5q14 -21 40.5 -36.5t55.5 -20.5q21 -3 52 2t39 13q3 3 -13.5 33l-35.5 63t-19 40q0 11 10 19.5
t19 5.5q7 -3 47.5 -67.5t45.5 -64.5q9 0 37 29t37 48q11 26 12 60t-9 68.5t-35.5 65.5t-63.5 47z" />
    <glyph glyph-name="R" unicode="R" horiz-adv-x="372" 
d="M115 538q141 18 207 -57q53 -61 35.5 -124t-99.5 -104l-34 -17l24 -82q13 -45 19 -70t5 -37t-5 -14t-14 -4q-14 -1 -20 9q-8 12 -32 100q-21 75 -25 79.5t-51 -0.5l-47 -4l-4 -83q-2 -53 -4.5 -69.5t-10.5 -21.5q-12 -7 -23 0q-8 5 -10.5 39t-3.5 175q-1 207 -8 215
q-10 11 2.5 26t40 27.5t58.5 16.5zM229 491q-22 7 -73 6.5t-66 -6.5q-11 -5 -13 -17q-2 -14 -1 -102l2 -112l27 2q72 5 134 37t73 69q9 29 -20 71.5t-63 51.5z" />
    <glyph glyph-name="S" unicode="S" horiz-adv-x="298" 
d="M121 534q33 12 70 10.5t67 -16t30 -33.5q0 -25 -57 -7q-51 15 -87.5 0.5t-50.5 -55.5q-8 -25 10 -48.5t45.5 -40t62 -42.5t50.5 -50q32 -49 14 -99t-81 -82q-24 -12 -70.5 -12t-72.5 13q-25 12 -35.5 34.5t-1.5 43.5q15 37 35 -4q17 -36 67 -37t87 33q36 33 24.5 65
t-75.5 73q-64 42 -88 71t-24 66t22.5 69.5t58.5 47.5z" />
    <glyph glyph-name="T" unicode="T" horiz-adv-x="388" 
d="M19 499q-18 19 6 25q28 8 174 8q107 0 137.5 -2t36.5 -9q9 -11 2 -22q-5 -7 -21.5 -9.5t-62.5 -4.5l-76 -4l-2 -212q-1 -178 -6 -203q-7 -34 -28 -20q-8 5 -10 42t-5 179l-3 214l-65 2q-41 2 -55 4.5t-22 11.5z" />
    <glyph glyph-name="U" unicode="U" horiz-adv-x="307" 
d="M38 544q7 8 17 6q15 -3 16.5 -36t-4.5 -109t-7 -125q0 -70 9 -105t33 -59q29 -28 73.5 0t62.5 86q8 24 12 179q4 142 10 152q2 3 8 4q19 3 24 -14q6 -23 4 -157q-1 -95 -4 -130.5t-10 -56.5q-22 -60 -59.5 -92t-86.5 -32q-25 0 -36 3.5t-26 16.5q-23 20 -41 61
q-12 26 -16 47.5t-7 66.5q-2 58 8 170t20 124z" />
    <glyph glyph-name="V" unicode="V" horiz-adv-x="345" 
d="M13 556q19 22 36 -20q5 -14 47 -166l27 -96q31 -100 31 -109q0 -23 11 1q7 14 14 39q13 42 67 178.5t62 143.5q8 8 17.5 1.5t9.5 -19.5q0 -22 -26 -89l-60 -161.5t-48 -169.5q-6 -30 -13.5 -42t-20.5 -12q-11 0 -25 20.5t-21 46.5q-7 23 -28 97l-34 118q-12 43 -33 136
q-13 55 -15.5 76t2.5 27z" />
    <glyph glyph-name="W" unicode="W" horiz-adv-x="464" 
d="M416 548q11 28 25 15q18 -16 12 -58q-9 -65 -62.5 -250t-68.5 -203q-30 -36 -62 62q-7 23 -20 70q-18 66 -24 66q-2 0 -18 -49t-36.5 -99t-32.5 -52q-11 -2 -19.5 6.5t-19 36.5t-22 73t-29.5 124q-28 124 -28 195l-1 70h16q12 0 16 -11t12 -70q8 -55 36.5 -183t33.5 -134
q3 -3 6 -1q4 6 28.5 79.5t27.5 91.5q6 27 20 29q9 1 15.5 -6t17.5 -28q15 -31 35.5 -89t20.5 -72q0 -26 12 -1q6 13 14 37q29 92 58.5 200t29.5 118q0 16 7 33z" />
    <glyph glyph-name="X" unicode="X" horiz-adv-x="341" 
d="M44 557q18 18 28 -12q5 -13 10 -40q8 -40 33 -108.5t32 -71.5q5 -1 39.5 50.5l71 108t43.5 61.5q9 8 19.5 0.5t10.5 -20.5q0 -9 -37.5 -73.5t-85.5 -136.5l-33 -52l35 -59q37 -63 59 -110t19 -56q-1 -4 -5 -8.5t-10.5 -6.5t-13 -1t-13.5 10t-13 26q-9 25 -47 89
q-13 22 -20.5 33t-13 18t-8 5.5t-6.5 -3.5q-10 -9 -51 -92q-27 -55 -37 -69t-21 -14q-30 0 -10 52q7 20 22 50q34 66 55 102l21 35l-28 68q-34 84 -47 147t2 78z" />
    <glyph glyph-name="Y" unicode="Y" horiz-adv-x="339" 
d="M15 561q3 3 6.5 3t8.5 -4t11.5 -11.5t16.5 -22t21.5 -33l27.5 -45.5q69 -114 78 -116t56 106q49 113 66 119q7 2 15 -8q10 -13 3 -36.5t-51 -122.5q-49 -112 -45 -127q4 -6 1 -13t-7.5 -10t-14.5 -20t-20 -44q-20 -55 -42.5 -97.5t-32.5 -46.5q-8 -3 -22 6t-14 18
q0 6 16 31q12 18 41.5 90t29.5 83q0 7 -17 31q-15 19 -60.5 96t-62.5 109q-10 21 -13 39.5t4 25.5z" />
    <glyph glyph-name="Z" unicode="Z" horiz-adv-x="401" 
d="M39 542q2 6 29 7.5t121 0.5q101 -1 123.5 -3.5t24.5 -10.5q3 -18 -58.5 -122.5t-61.5 -106.5q0 -4 43 -4q61 0 56 -20q0 -4 -4 -9q-9 -10 -70 -12l-60 -2l-53 -74q-52 -74 -52.5 -82.5t151.5 -9.5q101 -1 128 -3.5t31 -9.5q7 -11 -1 -22q-10 -12 -190 -12t-185 11
q-6 17 22 65.5t56.5 91t24.5 46.5t-29 8q-29 5 -27 16q4 15 49 18h13q21 0 29 4.5t23 26.5q24 34 61.5 96t37.5 68q0 7 -83 7q-34 0 -57.5 0.5t-42 2t-28.5 4.5t-17 7t-6.5 9.5t2.5 13.5z" />
    <glyph glyph-name="bracketleft" unicode="[" horiz-adv-x="241" 
d="M29 532q10 8 26 10.5t61 2.5q57 0 79.5 -7t22.5 -26q0 -16 -17.5 -23t-64.5 -11l-61 -4l1 -267q1 -268 4.5 -273.5t68.5 -5.5q52 0 67 -6t15 -25q0 -11 -3 -16t-16 -8.5t-32.5 -4.5t-59.5 -1q-68 0 -83.5 2t-20.5 12q-8 14 -5 326l2 312z" />
    <glyph glyph-name="backslash" unicode="\" horiz-adv-x="63" 
d="M15 560q5 12 16 10q8 -1 11.5 -11t6 -50.5t3.5 -102t1 -185.5q0 -185 -1.5 -233.5t-8.5 -53.5q-11 -9 -22 -2q-7 5 -9 54.5t-2 257.5q0 304 5 316z" />
    <glyph glyph-name="bracketright" unicode="]" horiz-adv-x="220" 
d="M28 539q4 4 12.5 6t23 4t26.5 3t34 2.5t35 2.5q11 1 30 -15q13 -11 14.5 -16t-3.5 -14q-9 -14 -9 -304q0 -195 2 -244t9 -58q11 -12 4 -28q-13 -30 -122 -21q-45 4 -59.5 10t-14.5 20.5t14.5 21.5t50.5 11l46 4l3 567h-39q-56 0 -66 23q-6 13 9 25z" />
    <glyph glyph-name="a" unicode="a" horiz-adv-x="300" 
d="M82 405q24 11 54 12t52 -9q23 -9 54.5 -45t39.5 -62q8 -27 8 -121t-8 -113q-8 -18 -19 -22t-22 6q-7 6 -14.5 6.5t-24.5 -3.5q-27 -7 -68.5 0t-65.5 22q-42 26 -54 70.5t10 88.5q24 45 85 64.5t105 -3.5q16 -9 15 3q-1 20 -30 47q-7 7 -15 11q-33 21 -76 10t-60 -44
q-10 -20 -15 -20q-7 0 -14 9.5t-7 19.5q0 13 24 38t46 35zM247 172q0 29 -12 49t-29.5 28t-30 11t-20.5 3q-20 0 -47.5 -13.5t-37.5 -27.5q-11 -15 -11 -42.5t11 -42.5q23 -33 84 -38t82 24q11 15 11 49z" />
    <glyph glyph-name="b" unicode="b" horiz-adv-x="286" 
d="M18 517q8 8 15 8q15 0 19.5 -19t4.5 -80q0 -82 6.5 -82t29.5 13q23 15 63 14t63 -16q52 -35 57 -111.5t-42 -128.5q-30 -33 -57.5 -44t-71.5 -8q-28 2 -45 0t-21.5 -4.5t-8 -2.5t-9.5 5q-7 6 -9 45t-2 183q0 220 8 228zM191 320q-30 16 -64 5.5t-55 -41.5
q-10 -15 -12.5 -30.5t-2.5 -58.5q0 -45 2.5 -57t12.5 -19q14 -10 43.5 -10t47.5 9.5t36.5 29t24.5 37.5q14 36 3.5 79t-36.5 56z" />
    <glyph glyph-name="c" unicode="c" horiz-adv-x="284" 
d="M113 373q30 15 49.5 14.5t50.5 -15.5q48 -24 26 -46q-5 -8 -13.5 -7t-13.5 5t-19.5 8.5t-32.5 4.5q-16 0 -26 -4.5t-23 -18.5q-22 -22 -37 -60.5t-15 -74.5q0 -24 4 -34t20 -26q19 -19 47 -29t51 -5q13 3 33 19l34.5 27t20.5 6q15 -16 -12 -50.5t-63 -44.5
q-46 -12 -99 12t-73 66q-19 39 -8 100t44 108q20 27 55 45z" />
    <glyph glyph-name="d" unicode="d" horiz-adv-x="281" 
d="M233.5 517.5q8.5 8.5 21.5 5.5q9 -1 11 -18q3 -24 5 -209q1 -145 -0.5 -187t-8.5 -47q-5 -4 -9.5 -4.5t-10 1.5t-22 3t-39.5 1q-75 -3 -120 38q-33 32 -45.5 83t0.5 99t47 71q23 16 61 17t68 -14q26 -13 29.5 -13t3.5 82.5t8.5 91zM200 298q-17 18 -27.5 23.5t-33.5 7.5
q-24 2 -32.5 -1t-24.5 -19q-27 -26 -30 -66t16.5 -75.5t54.5 -49.5q21 -9 47.5 -8.5t39.5 9.5q11 7 13 19.5t2 61.5v70z" />
    <glyph glyph-name="e" unicode="e" horiz-adv-x="295" 
d="M100 373q33 17 73.5 8.5t66.5 -37.5q20 -22 29 -47.5t14 -68.5q3 -26 1 -33t-13.5 -12t-102 -18t-96.5 -18q-6 -4 -4 -9.5t14 -17.5q30 -32 77 -38t81 17q20 14 32.5 13.5t12.5 -13.5q0 -22 -20.5 -39t-53 -22t-67.5 -0.5t-69 27.5t-53 60q-9 17 -11 32t0 49
q8 124 89 167zM216 303q-9 18 -30.5 27t-45 6t-46 -25.5t-30.5 -62.5q-10 -42 -3.5 -49.5t44.5 1.5q24 5 59 9.5t52.5 8t19.5 9.5q3 7 -3.5 31.5t-16.5 44.5z" />
    <glyph glyph-name="f" unicode="f" horiz-adv-x="295" 
d="M167 566q34 21 72.5 8.5t38.5 -43.5q0 -20 -11 -24.5t-21 10.5q-11 17 -33 15.5t-37.5 -20t-24.5 -63.5t-6 -95l2 -47l60 -2q47 -2 62.5 -7.5t15.5 -21.5q0 -13 -11.5 -17t-54.5 -5q-52 -2 -60 -7q-7 -4 -5.5 -40.5t3.5 -75.5t-9 -72q-7 -17 -19 -33t-25 -26t-26.5 -15.5
t-24.5 -3t-17 13.5q-6 13 -1.5 20t26.5 16q23 10 37 41q9 21 10.5 37t-1.5 56q-5 63 -10.5 72t-40.5 9t-42 12q-8 12 1.5 20t42.5 15l36 8l3 80q4 88 18 125t52 60z" />
    <glyph glyph-name="g" unicode="g" horiz-adv-x="313" 
d="M230 403q25 17 36.5 18t19.5 -13q5 -7 1.5 -13t-17.5 -18q-17 -14 -19 -19t5 -16q28 -43 32.5 -71.5t-11.5 -60.5q-12 -23 -43 -45t-58 -26q-55 -9 -81 -51t-3 -86q15 -29 57.5 -33t80.5 21q48 32 6 68q-18 14 -25 15.5t-25 -5.5q-12 -4 -14.5 -8.5t0.5 -17.5
q4 -15 1.5 -18t-17.5 -3q-22 0 -32 16t-1 35q17 34 59 44.5t72 -11.5q21 -16 35 -39t14 -41q0 -32 -28.5 -59t-72.5 -38.5t-84 -0.5q-36 10 -58.5 43.5t-22.5 72.5t22 76q16 24 16 27q0 2 -12 14.5t-25.5 28t-22 43.5t-3.5 59q4 29 14.5 47.5t31.5 37.5q28 24 47 26.5
t68 -12.5q20 -6 28 -4t29 17zM235 254q1 13 -4.5 27.5t-17 29t-36 24t-58.5 9.5q-25 0 -32.5 -3.5t-14.5 -17.5q-10 -18 -10 -49.5t9 -50.5q17 -31 55.5 -37t72 13.5t36.5 54.5z" />
    <glyph glyph-name="h" unicode="h" horiz-adv-x="285" 
d="M41 556q5 13 14.5 15t18.5 -9q5 -6 4.5 -21t-7.5 -56q-5 -33 -10 -86.5t-6.5 -88.5t1.5 -40l15.5 13t35 26.5t46 20t48.5 -6.5q27 -14 50.5 -78t23.5 -123q0 -67 -20 -67q-5 0 -12 4q-12 7 -16 71q-4 65 -21.5 109t-39.5 44q-18 0 -39.5 -17t-33.5 -40
q-10 -21 -11.5 -37.5t0.5 -62.5q3 -47 1.5 -60t-9.5 -21q-30 -27 -48 47q-16 70 -16 208q0 174 31 256z" />
    <glyph glyph-name="i" unicode="i" horiz-adv-x="98" 
d="M35.5 329q8.5 8 16.5 8q15 0 18.5 -23.5t2.5 -107.5q-1 -72 -3.5 -93.5t-9.5 -26.5q-11 -7 -22 2q-7 5 -9 27.5t-2 93.5q0 112 8.5 120zM22 476q13 16 39.5 5t26.5 -32q0 -26 -26.5 -35.5t-43.5 9.5q-9 10 -8 24.5t12 28.5z" />
    <glyph glyph-name="j" unicode="j" horiz-adv-x="335" 
d="M218 388q39 14 52.5 15t21.5 -9t3.5 -20t-19.5 -14q-16 -4 -17 -11t12 -21.5t32 -50.5q12 -24 15.5 -43t5.5 -63q3 -61 -7 -98.5t-38 -75.5q-50 -67 -122 -61q-32 3 -55 13.5t-45 32.5q-23 23 -33 46t-13 58q-3 43 2.5 68t23.5 45q26 30 79.5 44.5t81.5 -0.5
q20 -11 23 -59.5t-14 -83.5q-18 -35 -47 -36q-20 0 -20 17q1 13 14 28q17 21 17 54q0 29 -9.5 35.5t-38.5 -2.5q-41 -12 -56 -40t-7 -77q4 -28 24.5 -52t46.5 -36t56 -5t51 36q25 35 33 65t6 83q-1 51 -12 81.5t-39 63.5q-14 17 -20 19t-27 -4q-19 -6 -26 -5.5t-14 7.5
q-7 8 -8 12.5t8.5 11t26.5 13.5t52 19zM154 510q11 15 36.5 15.5t33.5 -14.5t6 -26t-15 -25q-15 -14 -32 -16t-26.5 7.5t-12.5 24.5t10 34z" />
    <glyph glyph-name="k" unicode="k" horiz-adv-x="235" 
d="M15 521q5 5 16 3.5t18 -7.5q8 -8 8 -131t5 -123t50 41q60 54 69 28q2 -3 2 -7q2 -15 -36 -56l-39 -40l16 -31q12 -23 38 -54l44.5 -54t18.5 -36q0 -27 -40 1q-43 31 -82 90q-27 41 -35 41q-6 0 -10 -62q-5 -82 -24 -82q-6 0 -13 6q-7 5 -9 46t-2 192q0 230 5 235z" />
    <glyph glyph-name="l" unicode="l" horiz-adv-x="71" 
d="M20 559q22 25 36 -1q7 -12 5 -259q-1 -169 -3 -208.5t-11 -44.5q-11 -8 -23 0q-8 5 -10 44.5t-3 209.5q-2 167 -0.5 209t9.5 50z" />
    <glyph glyph-name="m" unicode="m" horiz-adv-x="396" 
d="M101 349q13 8 33 4.5t32 -14.5q8 -7 18 -29.5t17 -41t10 -18.5q5 0 14 24q14 39 44 51.5t53 -10.5q35 -35 54 -155q16 -100 3 -108q-5 -4 -16 1q-13 5 -19.5 23t-14.5 74q-8 52 -20 87.5t-23 42.5q-18 11 -42 -126q-11 -68 -21 -90.5t-27 -20.5q-17 3 -20.5 35.5t-7.5 92
t-21 104.5q-10 28 -24 27.5t-28 -29.5q-12 -24 -14 -77t-4 -97t-14 -55q-13 -11 -23 -2t-20 42q-9 30 -10 130.5t7 116.5q7 12 17 12t17 -13q3 -6 5 -8t4 -2.5t4 1t5 4.5t7 6.5t10.5 8.5t14.5 9z" />
    <glyph glyph-name="n" unicode="n" horiz-adv-x="344" 
d="M16 381q28 34 39 -39q2 -14 4 -32q10 -106 17 -106q5 0 12 28q9 34 31 63t47 44t51 18t44 -16q18 -18 35 -62t26.5 -90t11.5 -86.5t-11 -52.5q-8 -8 -11.5 -7.5t-13.5 8.5q-13 13 -13 51q0 54 -25 128.5t-44 78.5q-12 2 -37.5 -22.5t-36.5 -48.5q-11 -26 -22 -82.5
t-23 -84.5t-33 -16q-36 19 -52 250q-5 65 4 76z" />
    <glyph glyph-name="o" unicode="o" horiz-adv-x="335" 
d="M122 372q21 3 30.5 3t13.5 -2t18 -9.5t34 -15.5q45 -16 75.5 -53.5t31.5 -75.5q0 -43 -25.5 -80t-70.5 -60q-57 -29 -120 -11.5t-90 69.5q-9 18 -9 55t11 67q10 30 46 70t55 43zM199 301q-32 14 -49 18q-18 4 -38.5 -12.5t-33 -43t-18 -56t5.5 -50.5t27.5 -31.5
t45.5 -14.5q19 -3 32 0t36 14q44 21 59 55.5t-3 68t-64 52.5z" />
    <glyph glyph-name="p" unicode="p" horiz-adv-x="304" 
d="M22 394q8 10 12.5 9.5t15.5 -10.5q12 -11 12 -31q1 -18 5 -17q41 21 61.5 27t45.5 4q54 -5 86.5 -50t33.5 -116q0 -34 -3 -47.5t-15 -30.5q-39 -60 -138 -69l-52 -5l3 -26q3 -27 3 -64q1 -24 -1.5 -31t-11.5 -8q-15 -2 -22 7q-14 17 -39 200q-9 66 -7.5 155.5t11.5 102.5
zM244 211q0 76 -43 107t-97 -8q-27 -19 -35 -34q-8 -14 -5 -77t12 -73q9 -11 50.5 -10t67.5 12q29 14 39.5 31t10.5 52z" />
    <glyph glyph-name="q" unicode="q" horiz-adv-x="356" 
d="M52 309q16 14 49 27.5t57 10.5q12 -1 35 -3.5t31 -3.5t23 -3.5t21 -5.5l16 -8t17 -12t14 -16q22 -29 28.5 -74.5t-4.5 -86.5q-5 -17 -22.5 -36t-41.5 -34q-9 -5 -7.5 -13t20.5 -43l26 -48l-14 -14q-11 -10 -14.5 -10.5t-11.5 7.5q-11 11 -36 53l-24 42l-29 -2
q-29 -2 -65 9t-56 28q-50 42 -54 118t42 118zM294 190q-1 33 -7 52.5t-22 30.5t-35 15t-53 6l-64 5l-26 -24q-18 -16 -22 -26.5t-6 -39.5q-2 -38 8.5 -62.5t36.5 -42.5q16 -11 42.5 -15t33.5 4q2 2 -15 30q-23 39 6 39q20 0 51 -43q10 -13 14.5 -14t19.5 6q25 13 32 27t6 52
z" />
    <glyph glyph-name="r" unicode="r" horiz-adv-x="256" 
d="M10 224q2 125 11 142q6 12 20 10q9 -1 12.5 -7t4.5 -22q3 -40 10 -40q4 -1 13 8q27 25 65.5 35t59.5 -1q16 -9 30 -27q10 -13 10.5 -17.5t-7.5 -12t-13.5 -7.5t-24.5 8q-26 12 -42 7q-23 -7 -45.5 -25.5t-33.5 -38.5q-11 -19 -13 -35.5t0 -70.5l2 -78l-18 -2
q-12 -2 -17.5 2.5t-13 20.5t-9.5 43.5t-1 107.5z" />
    <glyph glyph-name="s" unicode="s" horiz-adv-x="188" 
d="M63 396q21 14 43.5 14.5t38.5 -12.5q10 -8 11.5 -13t-3.5 -13q-7 -12 -24 -10q-22 3 -35 -4t-24 -28q-17 -34 -9.5 -53t57 -66.5t58 -68t-10.5 -51.5q-12 -19 -47.5 -37.5t-60.5 -18.5q-31 0 -38 19q-7 16 18 23q2 1 5 2q24 4 51.5 20t29.5 26q2 12 -55 67l-58 54v38
q0 34 14.5 64.5t38.5 47.5z" />
    <glyph glyph-name="t" unicode="t" horiz-adv-x="254" 
d="M67 421q4 29 10.5 40t21.5 9q10 -2 11.5 -11.5t0.5 -56.5l-2 -65h53q33 0 45 -2.5t20 -11.5q20 -22 -17 -30q-15 -3 -41 -5q-53 -4 -61 -9q-10 -6 -3.5 -63.5t20.5 -88.5q15 -34 29.5 -40t41.5 9q20 11 34 11t14 -12q0 -8 -26 -34q-17 -17 -27 -21.5t-28 -4.5
q-19 0 -28 4.5t-26 22.5q-47 49 -57 170q-3 41 -6.5 49.5t-15.5 9.5q-18 2 -20 17q-1 9 3.5 14t17.5 11q18 8 23 19.5t13 68.5z" />
    <glyph glyph-name="u" unicode="u" horiz-adv-x="404" 
d="M244 358q4 6 20 5.5t21 -7.5q5 -9 3 -84q-2 -69 7.5 -108t32.5 -58q21 -17 36 -18q18 0 25.5 -7t1.5 -17q-18 -28 -58.5 -18.5t-64.5 47.5q-28 45 -28 23q0 -8 -23 -32.5t-38 -32.5q-42 -21 -89 1t-69 74q-11 36 -11 85.5t13 94t29 44.5q20 0 19.5 -30t-8.5 -71.5
t2 -85.5q12 -47 47 -63t63 14q21 22 35 78t22 107.5t12 58.5z" />
    <glyph glyph-name="v" unicode="v" horiz-adv-x="294" 
d="M13 348q8 10 22 8q9 -2 13.5 -11.5t9.5 -41.5q17 -98 24 -128.5t17 -44.5q14 -19 33.5 -27.5t33.5 -0.5q17 9 33.5 47.5t27.5 94.5q13 67 20.5 84t22.5 14q10 -1 12 -10t1 -52q-1 -84 -31.5 -150.5t-74.5 -81.5q-48 -15 -91 17t-60 96q-9 36 -14 108t1 79z" />
    <glyph glyph-name="w" unicode="w" horiz-adv-x="420" 
d="M294 129q13 0 30.5 47.5t33.5 104.5t24 68q20 31 26 -10q1 -7 2 -15q1 -29 -10.5 -81.5t-29.5 -92.5q-12 -29 -35 -52t-39 -23t-35 12t-29 28q-6 12 -10.5 16.5t-8.5 2t-6 -6t-6 -13.5q-5 -13 -8.5 -21t-12.5 -19t-20 -17q-32 -16 -68 5t-60 70q-17 33 -20.5 68.5
t3.5 85.5q6 42 14.5 58t21.5 11q7 -3 9 -18.5t2 -66.5q0 -81 9 -103q10 -23 29 -44t30 -21q14 0 23 29.5t13 64.5t14 66t27 33q15 3 23.5 -11.5t16.5 -53.5q7 -40 21.5 -70.5t25.5 -30.5z" />
    <glyph glyph-name="x" unicode="x" horiz-adv-x="294" 
d="M116 217q0 4 -19 31.5t-35.5 58.5t-9.5 47q10 27 57 -39q41 -54 45 -57q7 -2 53 49q61 68 74 42q1 -1 1 -3q5 -12 -6 -30t-45 -55l-8 -8q-27 -29 -27 -39t27 -40q5 -6 8 -9q23 -25 38 -53.5t15 -45.5q0 -47 -46 12q-3 5 -8 11q-23 31 -46.5 55.5t-31 24.5t-37 -32
t-52.5 -64q-28 -39 -45 -29q-6 4 -8 16q-2 16 11.5 38t50.5 64q44 51 44 55z" />
    <glyph glyph-name="y" unicode="y" horiz-adv-x="433" 
d="M18 369q8 8 13 8t82 -67l78 -68l60 55q58 54 73 64t25 2q15 -12 2 -33.5t-71 -81.5q-70 -73 -90.5 -108.5t-21.5 -87.5q0 -32 3 -41.5t18 -23.5q15 -13 26 -16t41 -3q71 0 100 43q11 18 8.5 52t-16.5 44q-20 14 -45 6.5t-25 -28.5q0 -11 6.5 -17t27.5 -15q33 -14 33 -21
q0 -24 -47 -24q-19 0 -29.5 3.5t-22.5 15.5q-21 20 -25 45.5t6.5 47.5t35 37t55.5 15q43 -1 68 -23t34 -69q9 -42 -7.5 -80t-49.5 -60t-76.5 -30.5t-90.5 8.5q-29 10 -53.5 36t-29.5 51q-6 34 0 78t21 75l18 39l-71 68q-53 51 -65 70.5t2 33.5z" />
    <glyph glyph-name="z" unicode="z" horiz-adv-x="321" 
d="M55 399q31 5 66.5 3.5t51.5 -7.5q34 -14 42.5 -47t-11.5 -71q-13 -24 -6.5 -28.5t55.5 -6.5q37 -2 50 -10t6 -25q-2 -7 -16.5 -9t-60.5 -2h-73l-27 -29q-47 -50 -40 -70q3 -7 16 -8t56 1q53 3 68 -2.5t9 -25.5q-6 -17 -24.5 -22.5t-71.5 -6.5q-58 -1 -77 4.5t-30 25.5
q-10 19 -5.5 41t14.5 37.5l19.5 30.5t9.5 19q0 5 -26 5q-21 0 -32 8.5t-7 21.5q4 10 59 14l55 5l19 30q31 49 21 63.5t-77 16.5q-61 1 -67 8q-8 8 4.5 21t29.5 15z" />
    <glyph glyph-name="braceleft" unicode="{" horiz-adv-x="282" 
d="M146 574q19 13 38 10t29 -20q6 -12 -1 -22t-21 -10q-15 0 -20.5 -23t-5.5 -91q0 -60 -8 -100.5t-17.5 -54t-16.5 -22.5t-6 -15t15 -21q33 -38 33 -113q0 -56 7 -90.5t19 -48t24 -18.5t27 -7.5t22 -8.5q11 -8 8 -21t-16 -21q-31 -20 -88 14q-33 19 -45.5 52t-17.5 113
q-4 64 -7 78.5t-16 25.5q-18 16 -36 16q-31 0 -35.5 22.5t23.5 38.5q20 12 41.5 43t25.5 53q4 26 5.5 87t9 99.5t30.5 54.5z" />
    <glyph glyph-name="bar" unicode="|" horiz-adv-x="72" 
d="M22.5 603.5q7.5 8.5 15.5 8.5q12 0 16 -15q8 -31 8 -348v-30q0 -336 -7 -371q-3 -22 -15 -21q-2 0 -9 1q-8 1 -11 17.5t-7 78.5q-6 100 -2 385.5t11.5 294z" />
    <glyph glyph-name="braceright" unicode="}" horiz-adv-x="214" 
d="M63 577q57 19 86 -35q8 -13 9.5 -38t0.5 -98l-2 -116l24 -26q20 -22 22.5 -41t-13.5 -27q-33 -18 -33 -109q0 -63 -14.5 -97t-54.5 -63q-21 -15 -40.5 -18.5t-29.5 6.5q-9 12 -8 20.5t11.5 19.5t22 20t24 21t17.5 21q6 11 11.5 91.5t16.5 97.5q8 13 8 19.5t-11 27.5
q-10 22 -11.5 42.5t1.5 101.5q1 49 2.5 77.5t-3.5 43t-12 17.5t-22 2q-17 -1 -21 1t-4 14q0 9 5 14.5t18 10.5z" />
    <glyph glyph-name="asciitilde" unicode="~" horiz-adv-x="452" 
d="M77 296q29 15 63.5 13t60.5 -21l50 -35q39 -27 76 -20t65 48q16 24 27 27.5t19 -11.5q13 -24 -23 -67q-41 -47 -104 -47q-32 0 -52.5 8t-56.5 35q-39 29 -58 33q-21 5 -44.5 -6t-40.5 -34q-10 -12 -20.5 -18t-18.5 -4t-10 12q-2 15 21 45t46 42z" />
    <glyph glyph-name="cent" unicode="&#xa2;" horiz-adv-x="320" 
d="M145 537q8 8 16.5 7.5t14 -8.5t8.5 -71l3 -64l34 -7q45 -10 61.5 -26.5t10.5 -45.5q-5 -29 -26 -35q-19 2 -22 23q0 12 -3.5 17t-13.5 7q-16 4 -28 2q-9 -2 -11 -21.5t-2 -108.5v-127h21q16 1 32.5 5t26 7.5t19.5 3t17 -7.5q7 -8 7 -12t-7 -16q-12 -18 -29 -28t-50 -18
l-37 -10l-2 -54q-1 -36 -3.5 -47t-11.5 -15q-9 -5 -15.5 -4.5t-10.5 8.5t-5.5 22.5t-1.5 38.5v55l-33 15q-44 18 -69 55.5t-25 81.5q0 23 11 66t23 67q15 28 54 66l39 38v66q0 67 8 75zM135 195q2 108 -5 108q-6 0 -23.5 -30t-23.5 -52t-6 -61q0 -26 3 -36t17 -23
q23 -24 29 -14q8 12 9 108z" />
    <glyph glyph-name="sterling" unicode="&#xa3;" horiz-adv-x="447" 
d="M238 535q17 15 27.5 19t31.5 4q56 0 89 -31q16 -15 18 -24t-9 -18q-6 -5 -12 -3.5t-19 12.5q-16 14 -45 17.5t-47 -6.5q-14 -7 -25 -38.5t-12 -63.5l-1 -36l70 -3q53 -3 62 -5.5t9 -15t-8 -14.5q-9 -3 -63 -4q-70 -2 -74.5 -7t-6.5 -68l-2 -63l54 -22q52 -22 80 -26t52 6
q16 7 21 7t8 -6q4 -10 -4.5 -24t-23.5 -24q-19 -12 -44.5 -9t-54 12t-51.5 18t-38.5 9t-15.5 -15q0 -11 -22.5 -34.5t-54.5 -37t-68 6.5q-27 16 -41.5 63t-1.5 78q10 24 28.5 32.5t54.5 6.5q11 -1 21.5 -2.5t16.5 -3.5t12 -2t9 -1.5t6 1t3.5 2t2 6t2 9t2.5 14.5
q6 48 0.5 58.5t-36.5 12.5q-36 2 -39 12q-5 13 6.5 21.5t34.5 8.5q26 0 34 8.5t12 41.5q11 83 52 121zM137 171q-18 8 -40.5 10.5t-28.5 -2.5q-5 -5 -5 -33q0 -44 25.5 -55t54.5 22q19 22 17.5 34t-23.5 24z" />
    <glyph glyph-name="section" unicode="&#xa7;" horiz-adv-x="314" 
d="M116 557q15 10 26 12.5t33 0.5q32 -4 56.5 -18t32.5 -35q13 -31 -5 -41.5t-41 15.5q-27 28 -55 20.5t-36 -45.5q-6 -25 13.5 -51t46.5 -45t56 -45.5t38 -50.5q11 -29 7 -61t-22 -59l-17 -26l20 -21q35 -37 35 -83q0 -51 -52 -81q-22 -13 -37.5 -16t-61.5 -3
q-56 0 -85.5 10t-47.5 35q-10 13 -10 18t8 17q10 16 21 16.5t31 -14.5q21 -15 73 -17q50 -2 72 7.5t22 33.5q0 27 -26 45t-70.5 35t-62.5 29q-27 18 -37.5 57t0 79.5t37.5 63.5l24 19l-18 27q-26 39 -16 93t48 79zM198 281q-38 35 -71 19.5t-30 -66.5q2 -23 6 -31t19 -18
q38 -26 69.5 -12t31.5 56q0 18 -4.5 27t-20.5 25z" />
    <glyph glyph-name="guillemotleft" unicode="&#xab;" horiz-adv-x="328" 
d="M274 376q10 18 22 19.5t15 -16.5q2 -20 -21 -52t-47.5 -58t-24.5 -30q1 -6 36 -34q28 -22 48 -53.5t15 -44.5q-5 -14 -22 -11.5t-27 18.5q-11 18 -57 62q-18 17 -26.5 26t-14.5 20t-6 17t6.5 17.5t15.5 21l27 27.5q50 49 61 71zM64 222q0 -15 43.5 -69.5t43.5 -59.5
q0 -11 -11 -18t-22 -3q-22 7 -65 70t-43 88q0 11 57.5 74.5t65.5 82.5q10 24 22.5 23t14.5 -25q2 -20 -9.5 -39t-54 -66.5t-42.5 -57.5z" />
    <glyph glyph-name="guillemotright" unicode="&#xbb;" horiz-adv-x="300" 
d="M162 338q-14 26 -10.5 37t19 7.5t27.5 -20.5q21 -27 56.5 -96t35.5 -81q0 -11 -18.5 -33.5t-45 -51.5t-36.5 -43q-12 -17 -26.5 -21t-18.5 9q-6 15 5 35.5t42 53.5q44 47 44 55q0 6 -28 61.5t-46 87.5zM15 387q8 10 16 10q14 0 72.5 -86.5t58.5 -105.5q0 -14 -54 -75.5
t-67 -61.5q-9 0 -17.5 8t-8.5 17t48 60l48 50l-14 29q-13 26 -40.5 62.5t-39.5 58.5t-2 34z" />
    <glyph glyph-name="questiondown" unicode="&#xbf;" 
 />
    <glyph glyph-name="Agrave" unicode="&#xc0;" 
 />
    <glyph glyph-name="Aacute" unicode="&#xc1;" 
 />
    <glyph glyph-name="Acircumflex" unicode="&#xc2;" 
 />
    <glyph glyph-name="Adieresis" unicode="&#xc4;" 
 />
    <glyph glyph-name="Ccedilla" unicode="&#xc7;" 
 />
    <glyph glyph-name="Egrave" unicode="&#xc8;" 
 />
    <glyph glyph-name="Eacute" unicode="&#xc9;" 
 />
    <glyph glyph-name="Ecircumflex" unicode="&#xca;" 
 />
    <glyph glyph-name="Edieresis" unicode="&#xcb;" 
 />
    <glyph glyph-name="Icircumflex" unicode="&#xce;" 
 />
    <glyph glyph-name="Idieresis" unicode="&#xcf;" 
 />
    <glyph glyph-name="Ntilde" unicode="&#xd1;" 
 />
    <glyph glyph-name="Oacute" unicode="&#xd3;" 
 />
    <glyph glyph-name="Ocircumflex" unicode="&#xd4;" 
 />
    <glyph glyph-name="Odieresis" unicode="&#xd6;" horiz-adv-x="346" 
d="M270 222q0 30 2.5 39t13.5 9q24 0 24 -56q0 -26 -3 -36t-16 -23q-20 -20 -52 -20.5t-60 18.5l-25 17l-23 -21q-23 -20 -48 -20q-29 0 -39 14.5t-8 52.5q4 50 18 54q6 2 10 -10q5 -12 5 -35q0 -37 10 -40q10 -4 27 8t26 30q10 19 19.5 18.5t30.5 -22.5q19 -19 42.5 -26
t35.5 3q10 8 10 46zM18 397q12 13 21 13t24 -12q16 -14 9 -26t-30 -12q-22 0 -29.5 11.5t5.5 25.5zM290 404q13 13 19.5 13t17.5 -13q13 -14 6 -25q-20 -32 -42 -12q-13 11 -13.5 17.5t12.5 19.5z" />
    <glyph glyph-name="Ugrave" unicode="&#xd9;" 
 />
    <glyph glyph-name="Uacute" unicode="&#xda;" 
 />
    <glyph glyph-name="Ucircumflex" unicode="&#xdb;" 
 />
    <glyph glyph-name="Udieresis" unicode="&#xdc;" 
 />
    <glyph glyph-name="germandbls" unicode="&#xdf;" 
 />
    <glyph glyph-name="agrave" unicode="&#xe0;" 
 />
    <glyph glyph-name="aacute" unicode="&#xe1;" 
 />
    <glyph glyph-name="acircumflex" unicode="&#xe2;" 
 />
    <glyph glyph-name="adieresis" unicode="&#xe4;" 
 />
    <glyph glyph-name="ccedilla" unicode="&#xe7;" 
 />
    <glyph glyph-name="egrave" unicode="&#xe8;" 
 />
    <glyph glyph-name="eacute" unicode="&#xe9;" 
 />
    <glyph glyph-name="ecircumflex" unicode="&#xea;" 
 />
    <glyph glyph-name="edieresis" unicode="&#xeb;" 
 />
    <glyph glyph-name="icircumflex" unicode="&#xee;" 
 />
    <glyph glyph-name="idieresis" unicode="&#xef;" 
 />
    <glyph glyph-name="oacute" unicode="&#xf3;" 
 />
    <glyph glyph-name="ocircumflex" unicode="&#xf4;" 
 />
    <glyph glyph-name="odieresis" unicode="&#xf6;" horiz-adv-x="624" 
d="M307 346q15 11 22 11q10 0 23.5 -11.5t13.5 -19.5q0 -22 -25.5 -32.5t-40.5 4.5q-9 10 -7 25t14 23zM213 423q23 7 30.5 6.5t20.5 -9.5q16 -11 14 -27.5t-23 -34.5q-27 -23 -55.5 -20.5t-28.5 28.5q0 18 12.5 35.5t29.5 21.5zM393 419q13 17 36 18.5t38 -13.5
q24 -24 -1 -56q-13 -16 -35.5 -17.5t-37.5 13.5q-24 24 0 55zM470 550q17 22 41.5 23.5t47.5 -18.5q21 -18 24.5 -32t-9.5 -35l-15 -24l14 -17q13 -17 27 -61t14 -69q0 -22 -9.5 -48.5t-21.5 -40.5q-26 -29 -114 -53q-49 -13 -55.5 -17.5t1.5 -17.5q6 -10 12.5 -33t11 -41.5
t8.5 -21.5q8 -5 5 -18t-14 -19q-12 -6 -72.5 -3t-75.5 11q-12 7 -11 22t16 58q13 40 8.5 46t-49.5 10q-49 4 -93 32t-64 69q-23 45 -13 118q3 18 0 21.5t-20 4.5q-29 3 -44 23t-8.5 44.5t32.5 38.5q37 19 63 -11q8 -8 15 -7t35 14q35 18 90 32.5t88 14.5q34 0 76 -9l42 -9z
M430 481q-34 10 -92.5 9t-99.5 -12q-26 -7 -40 -15.5t-31 -26.5q-31 -32 -40 -75t7 -80q8 -21 37.5 -46.5t52.5 -31.5q53 -15 169.5 5.5t148.5 50.5q12 11 15.5 21t3.5 38q0 125 -131 163z" />
    <glyph glyph-name="ugrave" unicode="&#xf9;" 
 />
    <glyph glyph-name="uacute" unicode="&#xfa;" 
 />
    <glyph glyph-name="ucircumflex" unicode="&#xfb;" 
 />
    <glyph glyph-name="udieresis" unicode="&#xfc;" 
 />
    <glyph glyph-name="eogonek" unicode="&#x119;" horiz-adv-x="848" 
d="M157 418q22 6 53 2t45 -14q28 -21 36 -41t8 -68q0 -39 -3 -53t-16 -33q-23 -36 -45.5 -46t-73.5 -7q-57 2 -68 7q-17 8 -17 -13q2 -31 30 -64q5 -6 10 -10q39 -32 100 2q23 13 29.5 14t15.5 -8q16 -14 12 -27t-32 -42q-34 -36 -31 -44.5t60.5 -8.5t62.5 -5q4 -3 -2 -11.5
t-18.5 -18t-26.5 -16.5q-50 -22 -92.5 -4.5t-46.5 61.5q-2 18 -6 23.5t-21 10.5q-39 14 -65.5 47t-37 75t-7 89t20.5 88t50 72.5t76 42.5zM235 344q-7 13 -38 13t-53 -13q-31 -19 -54.5 -64t-9.5 -59q8 -8 67 -10l59 -3l18 22q11 13 14.5 24.5t3.5 36.5q0 40 -7 53zM836 300
l1 282q0 -13 1 -32q1 -254 0 -504l-1 -53q-1 39 -1 307z" />
    <glyph glyph-name="quotedblleft" unicode="&#x201c;" horiz-adv-x="279" 
d="M219 444q-31 16 -17 75q11 50 36 63q15 8 27 -7q7 -14 1.5 -25t-13.5 -34t-5 -41q4 -20 -5 -29.5t-24 -1.5zM54 578q20 17 26.5 19t15.5 -6q10 -10 6.5 -21.5t-22.5 -32.5q-17 -19 -20.5 -32.5t2 -20t11 -17.5t3.5 -24q-4 -27 -28 -14q-27 14 -36 47q-2 8 -2 17
q0 47 44 85z" />
    <glyph glyph-name="quotedblbase" unicode="&#x201e;" horiz-adv-x="291" 
d="M235 78q10 11 24 -3t21 -41q8 -37 -24 -68q-28 -28 -49 -11q-3 3 -6 7q-6 7 -2 15t11 13t13.5 19t6.5 34q0 30 5 35zM56 85q19 23 35 -3q11 -19 11 -52q0 -26 -4 -35.5t-22 -27.5q-27 -27 -45 -25q-21 3 -21 16.5t22 33.5q18 16 21 24t-1 29q-4 31 4 40z" />
    <glyph glyph-name="bullet" unicode="&#x2022;" horiz-adv-x="176" 
d="M44 379q17 18 45 18q37 0 57 -25.5t20 -72.5q0 -20 -4.5 -30t-21.5 -27q-18 -17 -27.5 -21.5t-31.5 -4.5q-21 0 -30.5 4t-21.5 16q-13 13 -16.5 23t-2.5 34q1 31 8 48t26 38z" />
    <glyph glyph-name="Euro" unicode="&#x20ac;" horiz-adv-x="462" 
d="M235 548q28 7 67 7.5t73 -11.5t34 -33q0 -13 -9.5 -14.5t-44.5 7.5q-46 12 -88.5 2.5t-68.5 -37.5q-13 -13 -30.5 -53.5t-13.5 -46.5q4 -5 120 -5q72 0 96 -2t29 -8q8 -10 0 -20q-5 -7 -30 -9t-99 -2h-120l4 -50l95 -2q95 -2 103 -11.5t0 -19.5q-5 -6 -25 -8t-73 -2
q-90 0 -93 -6q-5 -8 12.5 -37t37.5 -47q35 -33 74 -36.5t91 21.5q68 32 74 27q2 -2 2 -8q0 -16 -32.5 -43t-82 -41t-108.5 10q-43 20 -72.5 55.5t-48.5 91.5q-2 8 -10.5 10.5t-29.5 2.5q-45 0 -50 17q-5 13 19 20q11 3 25 4q23 2 27 5t4 21v23l-35 2q-31 2 -43 12t1 19.5
t45 11.5l38 2l17 50q16 48 48.5 83.5t70.5 47.5z" />
  </font>
</defs>
</svg>
